<mxfile host="app.diagrams.net" modified="2021-07-30T04:06:00.132Z" agent="5.0 (Macintosh; Intel Mac OS X 10_15_7) AppleWebKit/537.36 (KHTML, like Gecko) Chrome/81.0.4044.138 Safari/537.36" etag="83mfHmjiHlVSzEBHoCI_" version="14.9.3" type="github">
  <diagram id="w4RqUTfECAAJWVxzC9uU" name="Page-1">
    <mxGraphModel dx="946" dy="614" grid="1" gridSize="10" guides="1" tooltips="1" connect="1" arrows="1" fold="1" page="1" pageScale="1" pageWidth="1654" pageHeight="2336" math="0" shadow="0">
      <root>
        <mxCell id="0" />
        <mxCell id="1" parent="0" />
        <mxCell id="ISCsbD7vwgzTnHuOufJC-1" value="main-publish" style="rounded=0;whiteSpace=wrap;html=1;" parent="1" vertex="1">
          <mxGeometry x="40" y="60" width="120" height="40" as="geometry" />
        </mxCell>
        <mxCell id="ISCsbD7vwgzTnHuOufJC-2" value="main-publish" style="whiteSpace=wrap;html=1;rounded=0;" parent="1" vertex="1">
          <mxGeometry x="40" y="480" width="120" height="40" as="geometry" />
        </mxCell>
        <mxCell id="ISCsbD7vwgzTnHuOufJC-5" value="" style="endArrow=none;html=1;rounded=0;exitX=0.5;exitY=1;exitDx=0;exitDy=0;entryX=0.5;entryY=0;entryDx=0;entryDy=0;" parent="1" source="ISCsbD7vwgzTnHuOufJC-1" target="ISCsbD7vwgzTnHuOufJC-2" edge="1">
          <mxGeometry relative="1" as="geometry">
            <mxPoint x="360" y="320" as="sourcePoint" />
            <mxPoint x="520" y="320" as="targetPoint" />
          </mxGeometry>
        </mxCell>
        <mxCell id="ISCsbD7vwgzTnHuOufJC-8" value="&lt;meta charset=&quot;utf-8&quot;&gt;&lt;span style=&quot;color: rgb(0, 0, 0); font-family: helvetica; font-size: 12px; font-style: normal; font-weight: 400; letter-spacing: normal; text-align: center; text-indent: 0px; text-transform: none; word-spacing: 0px; background-color: rgb(248, 249, 250); display: inline; float: none;&quot;&gt;JsonSchema&lt;/span&gt;" style="whiteSpace=wrap;html=1;" parent="1" vertex="1">
          <mxGeometry x="250" y="480" width="120" height="40" as="geometry" />
        </mxCell>
        <mxCell id="ISCsbD7vwgzTnHuOufJC-9" value="main-publish" style="rounded=0;whiteSpace=wrap;html=1;" parent="1" vertex="1">
          <mxGeometry x="40" y="60" width="120" height="40" as="geometry" />
        </mxCell>
        <mxCell id="ISCsbD7vwgzTnHuOufJC-10" value="JsonSchema" style="whiteSpace=wrap;html=1;" parent="1" vertex="1">
          <mxGeometry x="250" y="60" width="120" height="40" as="geometry" />
        </mxCell>
        <mxCell id="ISCsbD7vwgzTnHuOufJC-12" value="" style="endArrow=none;html=1;rounded=0;exitX=0.5;exitY=1;exitDx=0;exitDy=0;entryX=0.5;entryY=0;entryDx=0;entryDy=0;" parent="1" source="ISCsbD7vwgzTnHuOufJC-10" target="ISCsbD7vwgzTnHuOufJC-8" edge="1">
          <mxGeometry relative="1" as="geometry">
            <mxPoint x="360" y="320" as="sourcePoint" />
            <mxPoint x="520" y="320" as="targetPoint" />
          </mxGeometry>
        </mxCell>
        <mxCell id="ISCsbD7vwgzTnHuOufJC-15" value="" style="endArrow=block;endFill=1;html=1;edgeStyle=orthogonalEdgeStyle;align=left;verticalAlign=top;" parent="1" edge="1">
          <mxGeometry x="-1" relative="1" as="geometry">
            <mxPoint x="110" y="279.5" as="sourcePoint" />
            <mxPoint x="250" y="280" as="targetPoint" />
            <Array as="points">
              <mxPoint x="170" y="279.5" />
              <mxPoint x="170" y="279.5" />
            </Array>
          </mxGeometry>
        </mxCell>
        <mxCell id="ISCsbD7vwgzTnHuOufJC-18" value="app.run()" style="rounded=1;whiteSpace=wrap;html=1;" parent="1" vertex="1">
          <mxGeometry x="120" y="240" width="110" height="30" as="geometry" />
        </mxCell>
        <mxCell id="ISCsbD7vwgzTnHuOufJC-19" value="components&lt;br&gt;layout&lt;br&gt;rules&lt;br&gt;request&lt;br&gt;models" style="whiteSpace=wrap;html=1;shape=mxgraph.basic.document" parent="1" vertex="1">
          <mxGeometry x="260" y="230" width="100" height="100" as="geometry" />
        </mxCell>
        <mxCell id="ISCsbD7vwgzTnHuOufJC-24" value="compoents" style="whiteSpace=wrap;html=1;" parent="1" vertex="1">
          <mxGeometry x="480" y="480" width="120" height="40" as="geometry" />
        </mxCell>
        <mxCell id="ISCsbD7vwgzTnHuOufJC-25" value="compoents" style="whiteSpace=wrap;html=1;" parent="1" vertex="1">
          <mxGeometry x="480" y="60" width="120" height="40" as="geometry" />
        </mxCell>
        <mxCell id="ISCsbD7vwgzTnHuOufJC-26" value="" style="endArrow=none;html=1;rounded=0;exitX=0.5;exitY=1;exitDx=0;exitDy=0;entryX=0.5;entryY=0;entryDx=0;entryDy=0;" parent="1" source="ISCsbD7vwgzTnHuOufJC-25" target="ISCsbD7vwgzTnHuOufJC-24" edge="1">
          <mxGeometry relative="1" as="geometry">
            <mxPoint x="580" y="320" as="sourcePoint" />
            <mxPoint x="740" y="320" as="targetPoint" />
          </mxGeometry>
        </mxCell>
        <mxCell id="ISCsbD7vwgzTnHuOufJC-27" value="渲染组件&lt;br&gt;业务逻辑" style="whiteSpace=wrap;html=1;shape=mxgraph.basic.document" parent="1" vertex="1">
          <mxGeometry x="490" y="230" width="100" height="100" as="geometry" />
        </mxCell>
        <mxCell id="ISCsbD7vwgzTnHuOufJC-31" value="" style="endArrow=block;endFill=1;html=1;edgeStyle=orthogonalEdgeStyle;align=left;verticalAlign=top;" parent="1" edge="1">
          <mxGeometry x="-1" relative="1" as="geometry">
            <mxPoint x="370" y="279.5" as="sourcePoint" />
            <mxPoint x="486" y="279.5" as="targetPoint" />
            <Array as="points">
              <mxPoint x="456" y="279.5" />
              <mxPoint x="456" y="279.5" />
            </Array>
          </mxGeometry>
        </mxCell>
        <mxCell id="ISCsbD7vwgzTnHuOufJC-33" value="component.set()" style="rounded=1;whiteSpace=wrap;html=1;" parent="1" vertex="1">
          <mxGeometry x="370" y="240" width="110" height="30" as="geometry" />
        </mxCell>
        <mxCell id="r1WcJWBGA8QpsbEsz_bO-1" value="handles" style="whiteSpace=wrap;html=1;" vertex="1" parent="1">
          <mxGeometry x="710" y="480" width="120" height="40" as="geometry" />
        </mxCell>
        <mxCell id="r1WcJWBGA8QpsbEsz_bO-2" value="handles" style="whiteSpace=wrap;html=1;" vertex="1" parent="1">
          <mxGeometry x="710" y="60" width="120" height="40" as="geometry" />
        </mxCell>
        <mxCell id="r1WcJWBGA8QpsbEsz_bO-3" value="" style="endArrow=none;html=1;rounded=0;exitX=0.5;exitY=1;exitDx=0;exitDy=0;entryX=0.5;entryY=0;entryDx=0;entryDy=0;" edge="1" parent="1" source="r1WcJWBGA8QpsbEsz_bO-2" target="r1WcJWBGA8QpsbEsz_bO-1">
          <mxGeometry relative="1" as="geometry">
            <mxPoint x="830" y="320" as="sourcePoint" />
            <mxPoint x="990" y="320" as="targetPoint" />
          </mxGeometry>
        </mxCell>
        <mxCell id="r1WcJWBGA8QpsbEsz_bO-4" value="操作组件&lt;br&gt;改变组件props" style="whiteSpace=wrap;html=1;shape=mxgraph.basic.document" vertex="1" parent="1">
          <mxGeometry x="720" y="230" width="100" height="100" as="geometry" />
        </mxCell>
        <mxCell id="r1WcJWBGA8QpsbEsz_bO-5" value="handle.add()" style="rounded=1;whiteSpace=wrap;html=1;" vertex="1" parent="1">
          <mxGeometry x="600" y="240" width="110" height="30" as="geometry" />
        </mxCell>
        <mxCell id="r1WcJWBGA8QpsbEsz_bO-6" value="" style="endArrow=block;endFill=1;html=1;edgeStyle=orthogonalEdgeStyle;align=left;verticalAlign=top;" edge="1" parent="1">
          <mxGeometry x="-1" relative="1" as="geometry">
            <mxPoint x="600" y="279.5" as="sourcePoint" />
            <mxPoint x="716" y="279.5" as="targetPoint" />
            <Array as="points">
              <mxPoint x="686" y="279.5" />
              <mxPoint x="686" y="279.5" />
            </Array>
          </mxGeometry>
        </mxCell>
        <mxCell id="r1WcJWBGA8QpsbEsz_bO-7" value="middlewares" style="whiteSpace=wrap;html=1;" vertex="1" parent="1">
          <mxGeometry x="940" y="480" width="120" height="40" as="geometry" />
        </mxCell>
        <mxCell id="r1WcJWBGA8QpsbEsz_bO-8" value="middlewares" style="whiteSpace=wrap;html=1;" vertex="1" parent="1">
          <mxGeometry x="940" y="60" width="120" height="40" as="geometry" />
        </mxCell>
        <mxCell id="r1WcJWBGA8QpsbEsz_bO-9" value="" style="endArrow=none;html=1;rounded=0;exitX=0.5;exitY=1;exitDx=0;exitDy=0;entryX=0.5;entryY=0;entryDx=0;entryDy=0;" edge="1" parent="1" source="r1WcJWBGA8QpsbEsz_bO-8" target="r1WcJWBGA8QpsbEsz_bO-7">
          <mxGeometry relative="1" as="geometry">
            <mxPoint x="1060" y="320" as="sourcePoint" />
            <mxPoint x="1220" y="320" as="targetPoint" />
          </mxGeometry>
        </mxCell>
        <mxCell id="r1WcJWBGA8QpsbEsz_bO-10" value="记录coder操作" style="whiteSpace=wrap;html=1;shape=mxgraph.basic.document" vertex="1" parent="1">
          <mxGeometry x="950" y="230" width="100" height="100" as="geometry" />
        </mxCell>
        <mxCell id="r1WcJWBGA8QpsbEsz_bO-11" value="middleware.add()" style="rounded=1;whiteSpace=wrap;html=1;" vertex="1" parent="1">
          <mxGeometry x="830" y="240" width="110" height="30" as="geometry" />
        </mxCell>
        <mxCell id="r1WcJWBGA8QpsbEsz_bO-12" value="" style="endArrow=block;endFill=1;html=1;edgeStyle=orthogonalEdgeStyle;align=left;verticalAlign=top;" edge="1" parent="1">
          <mxGeometry x="-1" relative="1" as="geometry">
            <mxPoint x="830" y="279.5" as="sourcePoint" />
            <mxPoint x="946" y="279.5" as="targetPoint" />
            <Array as="points">
              <mxPoint x="916" y="279.5" />
              <mxPoint x="916" y="279.5" />
            </Array>
          </mxGeometry>
        </mxCell>
        <mxCell id="r1WcJWBGA8QpsbEsz_bO-13" value="validators" style="whiteSpace=wrap;html=1;" vertex="1" parent="1">
          <mxGeometry x="1170" y="480" width="120" height="40" as="geometry" />
        </mxCell>
        <mxCell id="r1WcJWBGA8QpsbEsz_bO-14" value="validators" style="whiteSpace=wrap;html=1;" vertex="1" parent="1">
          <mxGeometry x="1170" y="60" width="120" height="40" as="geometry" />
        </mxCell>
        <mxCell id="r1WcJWBGA8QpsbEsz_bO-15" value="" style="endArrow=none;html=1;rounded=0;exitX=0.5;exitY=1;exitDx=0;exitDy=0;entryX=0.5;entryY=0;entryDx=0;entryDy=0;" edge="1" parent="1" source="r1WcJWBGA8QpsbEsz_bO-14" target="r1WcJWBGA8QpsbEsz_bO-13">
          <mxGeometry relative="1" as="geometry">
            <mxPoint x="1290" y="320" as="sourcePoint" />
            <mxPoint x="1450" y="320" as="targetPoint" />
          </mxGeometry>
        </mxCell>
        <mxCell id="r1WcJWBGA8QpsbEsz_bO-16" value="提交前的&lt;br&gt;组件校验" style="whiteSpace=wrap;html=1;shape=mxgraph.basic.document" vertex="1" parent="1">
          <mxGeometry x="1180" y="230" width="100" height="100" as="geometry" />
        </mxCell>
        <mxCell id="r1WcJWBGA8QpsbEsz_bO-17" value="validator.prepend()" style="rounded=1;whiteSpace=wrap;html=1;" vertex="1" parent="1">
          <mxGeometry x="1060" y="240" width="110" height="30" as="geometry" />
        </mxCell>
        <mxCell id="r1WcJWBGA8QpsbEsz_bO-18" value="" style="endArrow=block;endFill=1;html=1;edgeStyle=orthogonalEdgeStyle;align=left;verticalAlign=top;" edge="1" parent="1">
          <mxGeometry x="-1" relative="1" as="geometry">
            <mxPoint x="1060" y="279.5" as="sourcePoint" />
            <mxPoint x="1176" y="279.5" as="targetPoint" />
            <Array as="points">
              <mxPoint x="1146" y="279.5" />
              <mxPoint x="1146" y="279.5" />
            </Array>
          </mxGeometry>
        </mxCell>
        <mxCell id="r1WcJWBGA8QpsbEsz_bO-20" value="requests" style="whiteSpace=wrap;html=1;" vertex="1" parent="1">
          <mxGeometry x="1420" y="480" width="120" height="40" as="geometry" />
        </mxCell>
        <mxCell id="r1WcJWBGA8QpsbEsz_bO-21" value="requests" style="whiteSpace=wrap;html=1;" vertex="1" parent="1">
          <mxGeometry x="1420" y="60" width="120" height="40" as="geometry" />
        </mxCell>
        <mxCell id="r1WcJWBGA8QpsbEsz_bO-22" value="" style="endArrow=none;html=1;rounded=0;exitX=0.5;exitY=1;exitDx=0;exitDy=0;entryX=0.5;entryY=0;entryDx=0;entryDy=0;" edge="1" parent="1" source="r1WcJWBGA8QpsbEsz_bO-21" target="r1WcJWBGA8QpsbEsz_bO-20">
          <mxGeometry relative="1" as="geometry">
            <mxPoint x="1520" y="320" as="sourcePoint" />
            <mxPoint x="1680" y="320" as="targetPoint" />
          </mxGeometry>
        </mxCell>
        <mxCell id="r1WcJWBGA8QpsbEsz_bO-23" value="提交草稿时校验&lt;br&gt;提交前的操作(统计发布时长等)&lt;br&gt;提交后的操作" style="whiteSpace=wrap;html=1;shape=mxgraph.basic.document" vertex="1" parent="1">
          <mxGeometry x="1430" y="230" width="100" height="100" as="geometry" />
        </mxCell>
        <mxCell id="r1WcJWBGA8QpsbEsz_bO-24" value="request.condition.add()&lt;br&gt;request.before.add()&lt;br&gt;request.success.add()" style="rounded=1;whiteSpace=wrap;html=1;" vertex="1" parent="1">
          <mxGeometry x="1290" y="220" width="130" height="50" as="geometry" />
        </mxCell>
        <mxCell id="r1WcJWBGA8QpsbEsz_bO-25" value="" style="endArrow=block;endFill=1;html=1;edgeStyle=orthogonalEdgeStyle;align=left;verticalAlign=top;" edge="1" parent="1">
          <mxGeometry x="-1" relative="1" as="geometry">
            <mxPoint x="1290" y="279.5" as="sourcePoint" />
            <mxPoint x="1420" y="280" as="targetPoint" />
            <Array as="points">
              <mxPoint x="1376" y="279.5" />
              <mxPoint x="1376" y="279.5" />
            </Array>
          </mxGeometry>
        </mxCell>
      </root>
    </mxGraphModel>
  </diagram>
</mxfile>
